<svg xmlns="http://www.w3.org/2000/svg" width="21.085" height="31.5" viewBox="0 0 21.085 31.5">
  <g id="chef_icon" data-name="chef icon" transform="translate(0.75 0.75)">
    <path id="Path_1" data-name="Path 1" d="M27.969,28.393H17.987a.471.471,0,0,1-.471-.471V24.46H28.44v3.462A.471.471,0,0,1,27.969,28.393Zm.07-13.983a2.506,2.506,0,0,0-1.9.87,3.57,3.57,0,0,0-6.192.025,2.514,2.514,0,0,0-2.9-.7,2.444,2.444,0,0,0-1.384,2.884l1.852,6.969H28.44l1.94-6.922a2.456,2.456,0,0,0-2.266-3.127ZM19.519,19.07l.437,5.389m6.191,0,.437-5.389m-3.605,0V24.46M13.5,43.5V41.051a4.9,4.9,0,0,1,4.9-4.9h9.793a4.9,4.9,0,0,1,4.9,4.9V43.5m-14.9-15.1a4.9,4.9,0,0,0,9.793,0Z" transform="translate(-13.5 -13.499)" fill="none" stroke="#bc4b20" stroke-linecap="round" stroke-linejoin="round" stroke-width="1.5"/>
  </g>
</svg>
